<?xml version="1.0" encoding="UTF-8"?>
<svg width="41px" height="5px" viewBox="0 0 41 5" version="1.1" xmlns="http://www.w3.org/2000/svg" xmlns:xlink="http://www.w3.org/1999/xlink">
    <!-- Generator: Sketch 48.1 (47250) - http://www.bohemiancoding.com/sketch -->
    <title>MARFOFFICE</title>
    <desc>Created with Sketch.</desc>
    <defs></defs>
    <g id="Page-1" stroke="none" stroke-width="1" fill="none" fill-rule="evenodd">
        <g id="marfajournal_1" transform="translate(-1031.000000, -749.000000)" fill="#D23731">
            <path d="M1036.0031,753.846852 L1036.0031,749.712527 L1035.99038,749.712527 L1034.5211,753.846852 L1033.92321,753.846852 L1032.45394,749.712527 L1032.44122,749.712527 L1032.44122,753.846852 L1031.80517,753.846852 L1031.80517,749.254571 L1032.9437,749.254571 L1034.26668,753.039068 L1034.2794,753.039068 L1035.57694,749.254571 L1036.63915,749.254571 L1036.63915,753.846852 L1036.0031,753.846852 Z M1037.94669,753.846852 L1037.29156,753.846852 L1039.22515,749.254571 L1039.90572,749.254571 L1041.76299,753.846852 L1041.06969,753.846852 L1040.57357,752.651078 L1038.44281,752.651078 L1037.94669,753.846852 Z M1039.53681,749.88426 L1038.65906,752.104075 L1040.37004,752.104075 L1039.53681,749.88426 Z M1043.00693,749.801574 L1043.00693,751.226326 L1044.05641,751.226326 C1044.76242,751.194523 1044.92144,750.876498 1044.92144,750.51395 C1044.92144,750.151401 1044.76242,749.833376 1044.05641,749.801574 L1043.00693,749.801574 Z M1043.91012,751.773329 L1043.01965,751.773329 L1043.01965,753.846852 L1042.3836,753.846852 L1042.3836,749.254571 L1044.02461,749.254571 C1044.79423,749.254571 1045.58929,749.49627 1045.58929,750.405821 C1045.58929,750.959185 1045.25854,751.385338 1044.72426,751.512548 L1044.72426,751.525269 C1045.27762,751.65884 1045.35395,751.951423 1045.42392,752.466623 C1045.49388,752.924579 1045.54476,753.414338 1045.71014,753.846852 L1045.02956,753.846852 C1044.97232,753.57335 1044.89599,753.274407 1044.86419,753.000905 C1044.81331,752.587473 1044.81331,752.212203 1044.60341,751.983225 C1044.41896,751.773329 1044.16454,751.79241 1043.91012,751.773329 Z M1047.22758,753.846852 L1046.59153,753.846852 L1046.59153,749.254571 L1049.31382,749.254571 L1049.31382,749.801574 L1047.22758,749.801574 L1047.22758,751.245407 L1049.19297,751.245407 L1049.19297,751.79241 L1047.22758,751.79241 L1047.22758,753.846852 Z M1050.01075,751.550711 C1050.01075,750.208646 1050.67861,749.159163 1052.10972,749.159163 C1053.54083,749.159163 1054.20868,750.208646 1054.20868,751.550711 C1054.20868,752.892777 1053.54083,753.942259 1052.10972,753.942259 C1050.67861,753.942259 1050.01075,752.892777 1050.01075,751.550711 Z M1050.67861,751.550711 C1050.67861,752.504786 1050.94575,753.395256 1052.10972,753.395256 C1053.27369,753.395256 1053.54083,752.504786 1053.54083,751.550711 C1053.54083,750.571194 1053.27369,749.706166 1052.10972,749.706166 C1050.94575,749.706166 1050.67861,750.571194 1050.67861,751.550711 Z M1055.73248,753.846852 L1055.09643,753.846852 L1055.09643,749.254571 L1057.81873,749.254571 L1057.81873,749.801574 L1055.73248,749.801574 L1055.73248,751.245407 L1057.69788,751.245407 L1057.69788,751.79241 L1055.73248,751.79241 L1055.73248,753.846852 Z M1059.27892,753.846852 L1058.64287,753.846852 L1058.64287,749.254571 L1061.36516,749.254571 L1061.36516,749.801574 L1059.27892,749.801574 L1059.27892,751.245407 L1061.24432,751.245407 L1061.24432,751.79241 L1059.27892,751.79241 L1059.27892,753.846852 Z M1062.88896,753.846852 L1062.25291,753.846852 L1062.25291,749.254571 L1062.88896,749.254571 L1062.88896,753.846852 Z M1067.47216,750.437624 L1066.80431,750.437624 C1066.77251,749.998749 1066.30183,749.706166 1065.83115,749.706166 C1064.69899,749.706166 1064.48909,750.742928 1064.48909,751.550711 C1064.48909,752.498426 1064.77531,753.395256 1065.77391,753.395256 C1066.26367,753.395256 1066.7089,753.153557 1066.78523,752.663799 L1067.45308,752.663799 C1067.38948,753.433419 1066.6135,753.942259 1065.71667,753.942259 C1064.36188,753.942259 1063.82124,752.835532 1063.82124,751.550711 C1063.82124,750.424903 1064.31736,749.11464 1065.8566,749.159163 C1066.74071,749.184605 1067.4022,749.617119 1067.47216,750.437624 Z M1071.12673,753.846852 L1068.19454,753.846852 L1068.19454,749.254571 L1071.07585,749.254571 L1071.07585,749.801574 L1068.83059,749.801574 L1068.83059,751.232686 L1070.96772,751.232686 L1070.96772,751.779689 L1068.83059,751.779689 L1068.83059,753.299849 L1071.12673,753.299849 L1071.12673,753.846852 Z" id="MARFOFFICE"></path>
        </g>
    </g>
</svg>