<?xml version="1.0" encoding="UTF-8"?>
<svg width="24px" height="18px" viewBox="0 0 24 18" version="1.1" xmlns="http://www.w3.org/2000/svg" xmlns:xlink="http://www.w3.org/1999/xlink">
    <!-- Generator: Sketch 48.1 (47250) - http://www.bohemiancoding.com/sketch -->
    <title>MarfaJ</title>
    <desc>Created with Sketch.</desc>
    <defs></defs>
    <g id="Page-1" stroke="none" stroke-width="1" fill="none" fill-rule="evenodd">
        <g id="marfajournal_1" transform="translate(-930.000000, -737.000000)" fill="#408EC0">
            <g id="MarfaJ" transform="translate(930.000000, 737.000000)">
                <path d="M11.353,6.283 L9.507,6.283 L9.405,5.747 C9.371,5.603 9.303,5.586 9.202,5.586 L8.88,5.586 C8.778,5.586 8.71,5.603 8.676,5.747 L8.575,6.283 L6.728,6.283 L7.701,0.595 C7.735,0.434 7.786,0.416 7.87,0.416 L10.211,0.416 C10.296,0.416 10.347,0.434 10.38,0.595 L11.353,6.283 Z M13.424,3.028 C13.634,3.028 13.71,2.938 13.71,2.646 L13.71,2.255 C13.71,1.988 13.657,1.793 13.419,1.793 L13.27,1.793 L13.27,3.028 L13.424,3.028 Z M17.601,4.179 L17.601,6.283 L15.873,6.283 L15.873,0.613 C15.873,0.488 15.923,0.416 16.042,0.416 L19.291,0.416 C19.41,0.416 19.46,0.488 19.46,0.613 L19.46,1.615 C19.46,1.74 19.41,1.811 19.291,1.811 L17.601,1.811 L17.601,2.77 L18.952,2.77 C19.071,2.77 19.122,2.841 19.122,2.966 L19.122,3.982 C19.122,4.107 19.071,4.179 18.952,4.179 L17.601,4.179 Z M14.71,3.904 L15.676,6.283 L13.863,6.283 L13.236,4.548 L13.236,6.283 L11.559,6.283 L11.559,0.613 C11.559,0.488 11.609,0.416 11.728,0.416 L13.71,0.416 C14.598,0.416 15.467,0.574 15.467,2.237 C15.467,3.2 15.289,3.77 14.71,3.904 Z M3.503,6.283 C3.419,6.283 3.368,6.265 3.317,6.104 L2.622,4.172 L2.622,6.283 L0.945,6.283 L0.945,0.613 C0.945,0.488 0.996,0.416 1.114,0.416 L2.588,0.416 C2.673,0.416 2.707,0.434 2.775,0.595 L3.74,3.081 L4.689,0.595 C4.757,0.434 4.791,0.416 4.876,0.416 L6.367,0.416 C6.485,0.416 6.536,0.488 6.536,0.613 L6.536,6.283 L4.842,6.283 L4.842,4.172 L4.164,6.104 C4.113,6.265 4.062,6.283 3.978,6.283 L3.503,6.283 Z M8.795,4.208 L9.252,4.208 L9.066,1.793 L9.032,1.793 L8.795,4.208 Z" id="Fill-29"></path>
                <path d="M0.945,16.012 C0.945,15.909 0.996,15.866 1.112,15.866 L1.35,15.866 C1.438,15.866 1.486,15.793 1.486,15.424 L1.487,6.681 C1.487,6.578 1.537,6.534 1.654,6.534 L2.757,6.534 C2.873,6.534 2.923,6.578 2.923,6.681 L2.923,15.109 C2.923,16.932 2.728,17.654 1.695,17.654 C1.508,17.654 1.146,17.589 0.945,17.51 L0.945,16.012 Z M12.119,8.814 C12.119,8.332 12.052,8.167 11.935,8.167 L11.823,8.167 L11.823,11.191 L11.935,11.191 C12.102,11.191 12.119,10.973 12.119,10.606 L12.119,8.814 Z M8.422,17.654 C6.924,17.654 6.84,15.933 6.84,14.859 L6.84,6.681 C6.84,6.578 6.89,6.534 7.007,6.534 L8.11,6.534 C8.227,6.534 8.277,6.578 8.277,6.681 L8.277,15.565 C8.277,15.83 8.306,16.006 8.422,16.006 C8.539,16.006 8.568,15.83 8.568,15.565 L8.568,6.681 C8.568,6.578 8.618,6.534 8.734,6.534 L9.838,6.534 C9.954,6.534 10.004,6.578 10.004,6.681 L10.004,14.859 C10.004,15.933 9.921,17.654 8.422,17.654 Z M4.876,17.654 C3.377,17.654 3.294,16.104 3.294,14.859 L3.294,9.255 C3.294,8.226 3.377,6.461 4.876,6.461 C6.374,6.461 6.458,8.226 6.458,9.255 L6.458,14.859 C6.458,15.933 6.374,17.654 4.876,17.654 Z M23.619,16.006 L23.619,17.565 L21.409,17.565 L21.409,6.681 C21.409,6.578 21.459,6.534 21.576,6.534 L22.679,6.534 C22.795,6.534 22.845,6.578 22.845,6.681 L22.845,15.859 L23.453,15.859 C23.569,15.859 23.619,15.903 23.619,16.006 Z M19.286,16.256 C19.187,16.256 19.137,16.315 19.12,16.551 L19.037,17.565 L17.571,17.565 L18.387,6.799 C18.404,6.608 18.471,6.534 18.604,6.534 L20.152,6.534 C20.285,6.534 20.352,6.608 20.369,6.799 L21.185,17.565 L19.703,17.565 L19.62,16.551 C19.603,16.315 19.553,16.256 19.453,16.256 L19.286,16.256 Z M19.174,14.241 L19.565,14.241 L19.403,9.299 L19.37,9.299 L19.174,14.241 Z M15.977,11.076 L15.994,11.076 L15.994,6.681 C15.994,6.578 16.044,6.534 16.16,6.534 L17.209,6.534 C17.326,6.534 17.376,6.578 17.376,6.681 L17.376,17.565 L15.977,17.565 L15.478,12.947 L15.461,12.947 L15.461,17.565 L14.063,17.565 L14.063,6.681 C14.063,6.578 14.112,6.534 14.229,6.534 L15.245,6.534 C15.378,6.534 15.444,6.608 15.461,6.799 L15.977,11.076 Z M4.876,8.108 C4.759,8.108 4.73,8.284 4.73,8.549 L4.73,15.565 C4.73,15.83 4.759,16.006 4.876,16.006 C4.992,16.006 5.021,15.83 5.021,15.565 L5.021,8.549 C5.021,8.284 4.992,8.108 4.876,8.108 Z M13.884,17.565 L12.302,17.565 L11.869,13.583 L11.852,13.583 L11.852,17.565 L10.387,17.565 L10.387,6.681 C10.387,6.578 10.437,6.534 10.553,6.534 L12.085,6.534 C13.161,6.534 13.517,6.776 13.517,9.345 L13.517,9.661 C13.517,10.593 13.556,11.971 13.068,12.191 L13.884,17.565 Z" id="Fill-30"></path>
                <path d="M22.649,0.595 C22.615,0.434 22.564,0.416 22.48,0.416 L20.139,0.416 C20.054,0.416 20.003,0.434 19.97,0.595 L18.977,6.283 L20.843,6.283 L20.945,5.747 C20.979,5.603 21.047,5.586 21.148,5.586 L21.47,5.586 C21.572,5.586 21.64,5.603 21.674,5.747 L21.775,6.283 L23.622,6.283 L22.649,0.595 Z M21.047,4.208 L21.284,1.793 L21.318,1.793 L21.504,4.208 L21.047,4.208 Z" id="Fill-31"></path>
            </g>
        </g>
    </g>
</svg>