<?xml version="1.0" encoding="UTF-8"?>
<svg width="210px" height="34px" viewBox="0 0 210 34" version="1.1" xmlns="http://www.w3.org/2000/svg" xmlns:xlink="http://www.w3.org/1999/xlink">
    <!-- Generator: Sketch 48.1 (47250) - http://www.bohemiancoding.com/sketch -->
    <title>Group</title>
    <desc>Created with Sketch.</desc>
    <defs></defs>
    <g id="Page-1" stroke="none" stroke-width="1" fill="none" fill-rule="evenodd">
        <g id="marfajournal_1" transform="translate(-1150.000000, -721.000000)" fill="#EAEBA8">
            <g id="Group" transform="translate(1150.000000, 721.000000)">
                <path d="M168.93,0.828 L161.25,0.828 C160.59,0.828 160.31,1.225 160.31,1.919 L160.31,33.338 L169.87,33.338 L169.87,1.919 C169.87,1.225 169.59,0.828 168.93,0.828" id="Fill-32"></path>
                <path d="M141.68,33.338 C141.21,33.338 140.93,33.239 140.65,32.346 L136.8,21.642 L136.8,33.338 L127.51,33.338 L127.51,1.919 C127.51,1.225 127.79,0.828 128.45,0.828 L136.61,0.828 C137.08,0.828 137.27,0.927 137.65,1.819 L143,15.596 L148.25,1.819 C148.63,0.927 148.82,0.828 149.29,0.828 L157.55,0.828 C158.21,0.828 158.49,1.225 158.49,1.919 L158.49,33.338 L149.1,33.338 L149.1,21.642 L145.34,32.346 C145.06,33.239 144.78,33.338 144.31,33.338 L141.68,33.338" id="Fill-33"></path>
                <path d="M185.56,25.526 L181.25,25.526 L181.25,1.913 C181.25,1.219 180.97,0.822 180.31,0.822 L172.63,0.822 C171.97,0.822 171.69,1.219 171.69,1.913 L171.69,33.343 L186.49,33.343 L186.5,26.616 C186.5,25.923 186.21,25.526 185.56,25.526" id="Fill-34"></path>
                <path d="M69.83,15.291 C70.99,15.291 71.42,14.793 71.42,13.167 L71.42,10.992 C71.42,9.504 71.13,8.424 69.8,8.424 L68.97,8.424 L68.97,15.291 L69.83,15.291 Z M93.07,21.697 L93.07,33.405 L83.45,33.405 L83.45,1.855 C83.45,1.159 83.74,0.761 84.4,0.761 L102.47,0.761 C103.13,0.761 103.42,1.159 103.42,1.855 L103.42,7.429 C103.42,8.126 103.13,8.524 102.47,8.524 L93.07,8.524 L93.07,13.855 L100.59,13.855 C101.25,13.855 101.53,14.253 101.53,14.95 L101.53,20.602 C101.53,21.299 101.25,21.697 100.59,21.697 L93.07,21.697 Z M82.36,33.405 L72.27,33.405 L68.78,23.751 L68.78,33.405 L59.45,33.405 L59.45,1.855 C59.45,1.159 59.73,0.761 60.39,0.761 L71.42,0.761 C76.36,0.761 81.2,1.637 81.2,10.893 C81.2,16.248 80.2,19.422 76.98,20.168 L82.36,33.405 Z M14.63,33.405 C14.16,33.405 13.87,33.306 13.59,32.41 L9.73,21.661 L9.73,33.405 L0.39,33.405 L0.39,1.855 C0.39,1.159 0.68,0.761 1.34,0.761 L9.54,0.761 C10.01,0.761 10.2,0.86 10.58,1.756 L15.95,15.59 L21.23,1.756 C21.61,0.86 21.79,0.761 22.27,0.761 L30.56,0.761 C31.22,0.761 31.5,1.159 31.5,1.855 L31.5,33.405 L22.08,33.405 L22.08,21.661 L18.31,32.41 C18.02,33.306 17.74,33.405 17.27,33.405 L14.63,33.405 Z" id="Fill-35"></path>
                <path d="M52.89,1.756 C52.71,0.86 52.42,0.761 51.95,0.761 L38.93,0.761 C38.46,0.761 38.17,0.86 37.98,1.756 L32.57,33.405 L42.85,33.405 L43.41,30.419 C43.6,29.623 43.98,29.524 44.54,29.524 L46.34,29.524 C46.9,29.524 47.28,29.623 47.47,30.419 L48.03,33.405 L58.31,33.405 L52.89,1.756 Z M44.07,21.86 L45.39,8.424 L45.58,8.424 L46.62,21.86 L44.07,21.86 Z" id="Fill-36"></path>
                <path d="M121.05,1.756 C120.87,0.86 120.58,0.761 120.11,0.761 L107.09,0.761 C106.62,0.761 106.33,0.86 106.15,1.756 L100.73,33.405 L111.01,33.405 L111.57,30.419 C111.76,29.623 112.14,29.524 112.7,29.524 L114.5,29.524 C115.06,29.524 115.44,29.623 115.63,30.419 L116.19,33.405 L126.47,33.405 L121.05,1.756 Z M112.23,21.86 L113.55,8.424 L113.74,8.424 L114.78,21.86 L112.23,21.86 Z" id="Fill-37"></path>
                <path d="M208.63,0.828 L200.25,0.828 C200,0.828 199.75,1.023 199.64,1.312 L195.89,10.405 L192.15,1.312 C192.04,1.023 191.79,0.828 191.54,0.828 L183.16,0.828 C182.56,0.828 182.48,1.179 182.67,1.62 L191.06,20.234 L191.06,33.338 L200.73,33.338 L200.73,20.234 L209.12,1.62 C209.31,1.179 209.23,0.828 208.63,0.828" id="Fill-38"></path>
            </g>
        </g>
    </g>
</svg>